<svg data-v-423bf9ae="" xmlns="http://www.w3.org/2000/svg" viewBox="0 0 341 90" class="iconLeft"><!----><!----><!----><g data-v-423bf9ae="" id="827e419e-715f-4713-9faf-20fd018343f6" fill="#12292A" transform="matrix(6.036216979508284,0,0,6.036216979508284,87.50000236874021,-0.2112681037406503)"><path d="M0 12.29L3.09 2.69L5.18 2.69L8.27 12.29L6.44 12.29L5.85 10.40L2.31 10.40L1.74 12.29L0 12.29ZM2.80 8.81L5.36 8.81L4.40 5.60L4.40 5.60Q4.30 5.29 4.21 4.86L4.21 4.86L4.21 4.86Q4.13 4.42 4.12 4.30L4.12 4.30L4.06 4.30L4.06 4.30Q4.03 4.44 3.95 4.88L3.95 4.88L3.95 4.88Q3.86 5.32 3.78 5.60L3.78 5.60L2.80 8.81ZM9.06 12.29L9.06 4.93L10.46 4.93L10.63 5.84L10.71 5.84L10.71 5.84Q11.03 5.36 11.49 5.06L11.49 5.06L11.49 5.06Q11.96 4.76 12.57 4.76L12.57 4.76L12.57 4.76Q13.48 4.76 14.01 5.33L14.01 5.33L14.01 5.33Q14.53 5.89 14.53 7.13L14.53 7.13L14.53 12.29L12.85 12.29L12.85 7.59L12.85 7.59Q12.85 6.90 12.61 6.59L12.61 6.59L12.61 6.59Q12.36 6.29 11.89 6.29L11.89 6.29L11.89 6.29Q11.40 6.29 11.07 6.71L11.07 6.71L11.07 6.71Q10.74 7.14 10.74 7.76L10.74 7.76L10.74 12.29L9.06 12.29ZM18.82 12.46L18.82 12.46Q17.33 12.46 16.60 11.52L16.60 11.52L16.60 11.52Q15.88 10.58 15.88 8.61L15.88 8.61L15.88 8.61Q15.88 6.64 16.60 5.70L16.60 5.70L16.60 5.70Q17.33 4.76 18.82 4.76L18.82 4.76L18.82 4.76Q20.30 4.76 21.03 5.70L21.03 5.70L21.03 5.70Q21.76 6.64 21.76 8.61L21.76 8.61L21.76 8.61Q21.76 10.58 21.03 11.52L21.03 11.52L21.03 11.52Q20.30 12.46 18.82 12.46L18.82 12.46ZM18.82 11.05L18.82 11.05Q19.45 11.05 19.73 10.51L19.73 10.51L19.73 10.51Q20.01 9.97 20.01 8.88L20.01 8.88L20.01 8.34L20.01 8.34Q20.01 7.25 19.73 6.71L19.73 6.71L19.73 6.71Q19.45 6.17 18.82 6.17L18.82 6.17L18.82 6.17Q18.19 6.17 17.91 6.71L17.91 6.71L17.91 6.71Q17.63 7.25 17.63 8.34L17.63 8.34L17.63 8.88L17.63 8.88Q17.63 9.97 17.91 10.51L17.91 10.51L17.91 10.51Q18.19 11.05 18.82 11.05L18.82 11.05ZM26.05 12.46L26.05 12.46Q25.14 12.46 24.39 12.12L24.39 12.12L24.39 12.12Q23.63 11.77 23.18 11.10L23.18 11.10L23.18 11.10Q22.74 10.43 22.74 9.48L22.74 9.48L22.75 9.17L24.61 9.17L24.60 9.39L24.60 9.39Q24.60 10.09 25.00 10.51L25.00 10.51L25.00 10.51Q25.41 10.92 26.14 10.92L26.14 10.92L26.14 10.92Q26.88 10.92 27.24 10.59L27.24 10.59L27.24 10.59Q27.59 10.26 27.59 9.79L27.59 9.79L27.59 9.79Q27.59 9.31 27.34 9.01L27.34 9.01L27.34 9.01Q27.09 8.71 26.72 8.54L26.72 8.54L26.72 8.54Q26.35 8.37 25.68 8.15L25.68 8.15L25.68 8.15Q24.79 7.87 24.25 7.59L24.25 7.59L24.25 7.59Q23.70 7.31 23.32 6.73L23.32 6.73L23.32 6.73Q22.93 6.16 22.93 5.21L22.93 5.21L22.93 5.21Q22.93 4.34 23.37 3.73L23.37 3.73L23.37 3.73Q23.80 3.12 24.53 2.82L24.53 2.82L24.53 2.82Q25.26 2.52 26.14 2.52L26.14 2.52L26.14 2.52Q27.51 2.52 28.38 3.23L28.38 3.23L28.38 3.23Q29.26 3.93 29.26 5.35L29.26 5.35L29.26 5.52L27.43 5.52L27.43 5.39L27.43 5.39Q27.43 4.77 27.08 4.42L27.08 4.42L27.08 4.42Q26.73 4.06 26.12 4.06L26.12 4.06L26.12 4.06Q25.49 4.06 25.14 4.35L25.14 4.35L25.14 4.35Q24.78 4.63 24.78 5.08L24.78 5.08L24.78 5.08Q24.78 5.47 25.02 5.73L25.02 5.73L25.02 5.73Q25.26 5.98 25.61 6.13L25.61 6.13L25.61 6.13Q25.97 6.29 26.60 6.48L26.60 6.48L26.60 6.48Q27.51 6.78 28.07 7.05L28.07 7.05L28.07 7.05Q28.63 7.32 29.04 7.90L29.04 7.90L29.04 7.90Q29.44 8.47 29.44 9.41L29.44 9.41L29.44 9.41Q29.44 10.99 28.54 11.72L28.54 11.72L28.54 11.72Q27.64 12.46 26.05 12.46L26.05 12.46ZM30.67 12.29L30.67 2.69L32.47 2.69L32.47 12.29L30.67 12.29ZM33.91 12.29L33.91 2.69L36.43 2.69L37.62 7.98L37.62 7.98Q37.70 8.37 37.83 9.13L37.83 9.13L37.83 9.13Q37.95 9.90 38.00 10.15L38.00 10.15L38.05 10.15L38.05 10.15Q38.08 9.88 38.18 9.11L38.18 9.11L38.18 9.11Q38.29 8.33 38.37 7.98L38.37 7.98L39.55 2.69L41.99 2.69L41.99 12.29L40.33 12.29L40.33 6.17L40.33 6.17Q40.33 5.75 40.36 5.28L40.36 5.28L40.36 5.28Q40.39 4.82 40.40 4.63L40.40 4.63L40.35 4.63L40.01 6.15L38.67 12.29L37.11 12.29L35.76 6.12L35.42 4.63L35.36 4.63L35.36 4.63Q35.38 4.82 35.41 5.29L35.41 5.29L35.41 5.29Q35.43 5.77 35.43 6.17L35.43 6.17L35.43 12.29L33.91 12.29Z"></path></g><defs data-v-423bf9ae=""><linearGradient data-v-423bf9ae="" gradientTransform="rotate(25)" id="bd02e75d-14ca-4238-ba62-da3e876f0810" x1="0%" y1="0%" x2="100%" y2="0%"><stop data-v-423bf9ae="" offset="0%" style="stop-color: rgb(18, 38, 99); stop-opacity: 1;"></stop><stop data-v-423bf9ae="" offset="100%" style="stop-color: rgb(93, 215, 173); stop-opacity: 1;"></stop></linearGradient></defs><g data-v-423bf9ae="" id="2d3271e2-613b-4ab9-921b-84322a0a5c7b" transform="matrix(1.875,0,0,1.875,-14.75,-3.75)" stroke="none" fill="url(#bd02e75d-14ca-4238-ba62-da3e876f0810)"><style></style><path d="M41 50H11c-1.7 0-3-1.3-3-3V5c0-1.7 1.3-3 3-3h23.4l9.6 9.6V47c0 1.7-1.3 3-3 3zM11 4c-.6 0-1 .4-1 1v42c0 .6.4 1 1 1h30c.6 0 1-.4 1-1V12.4L33.6 4H11z"></path><path d="M34 44H18c-1.7 0-3-1.3-3-3V25c0-1.7 1.3-3 3-3h16c1.7 0 3 1.3 3 3v16c0 1.7-1.3 3-3 3zM18 24c-.6 0-1 .4-1 1v16c0 .6.4 1 1 1h16c.6 0 1-.4 1-1V25c0-.6-.4-1-1-1H18z"></path><path d="M21.4 39H15V27h6.4l2.6 2.6v6.8L21.4 39zM17 37h3.6l1.4-1.4v-5.2L20.6 29H17v8z"></path><path d="M16 32h7v2h-7zM37 39h-6.4L28 36.4v-6.8l2.6-2.6H37v12zm-5.6-2H35v-8h-3.6L30 30.4v5.2l1.4 1.4z"></path><path d="M29 32h7v2h-7zM25 23h2v4h-2zM25 39h2v4h-2z"></path></g><!----></svg>